<svg xmlns="http://www.w3.org/2000/svg" width="900" height="247" viewBox="0 0 900 247" role="img" aria-label="ACTIVITY / PAST YEAR">
<title>ACTIVITY / PAST YEAR</title><style>svg{--bg:#0d1117;--border:#30363d;--text:#e6edf3;--sub:#8b949e;--track:#161b22;font-family:Arial,sans-serif}.reveal{animation:reveal 1.4s ease-out both;transform-box:fill-box;transform-origin:left}@keyframes reveal{from{transform:scaleX(.02);opacity:.2}to{transform:scaleX(1);opacity:1}}@media(prefers-reduced-motion:reduce){.reveal{animation:none}}</style>
<rect x=".5" y=".5" width="899" height="246" rx="16" fill="var(--bg)" stroke="var(--border)"/>
<text x="28" y="34" fill="var(--sub)" font-size="13" font-weight="700">ACTIVITY / PAST YEAR</text><text x="28" y="86" fill="var(--text)" font-size="30" font-weight="700">232</text><text x="28" y="110" fill="var(--sub)" font-size="11" font-weight="400">CONTRIBUTIONS</text><text x="248" y="86" fill="var(--text)" font-size="30" font-weight="700">32</text><text x="248" y="110" fill="var(--sub)" font-size="11" font-weight="400">ACTIVE DAYS</text><text x="468" y="86" fill="var(--text)" font-size="30" font-weight="700">5 days</text><text x="468" y="110" fill="var(--sub)" font-size="11" font-weight="400">BEST STREAK</text><text x="688" y="86" fill="var(--text)" font-size="30" font-weight="700">6</text><text x="688" y="110" fill="var(--sub)" font-size="11" font-weight="400">LAST 30 DAYS</text><rect x="28.00" y="200.00" width="11.92" height="2.00" rx="2" fill="var(--track)"><title>2025-09-21: 0 contributions</title></rect><rect x="43.92" y="200.00" width="11.92" height="2.00" rx="2" fill="var(--track)"><title>2025-09-28: 0 contributions</title></rect><rect x="59.85" y="200.00" width="11.92" height="2.00" rx="2" fill="var(--track)"><title>2025-10-05: 0 contributions</title></rect><rect x="75.77" y="200.00" width="11.92" height="2.00" rx="2" fill="var(--track)"><title>2025-10-12: 0 contributions</title></rect><rect x="91.70" y="200.00" width="11.92" height="2.00" rx="2" fill="var(--track)"><title>2025-10-19: 0 contributions</title></rect><rect x="107.62" y="200.00" width="11.92" height="2.00" rx="2" fill="var(--track)"><title>2025-10-26: 0 contributions</title></rect><rect x="123.55" y="200.00" width="11.92" height="2.00" rx="2" fill="var(--track)"><title>2025-11-02: 0 contributions</title></rect><rect x="139.47" y="200.00" width="11.92" height="2.00" rx="2" fill="var(--track)"><title>2025-11-09: 0 contributions</title></rect><rect x="155.40" y="194.50" width="11.92" height="7.50" rx="2" fill="#39d3bb"><title>2025-11-16: 9 contributions</title></rect><rect x="171.32" y="200.00" width="11.92" height="2.00" rx="2" fill="#39d3bb"><title>2025-11-23: 1 contributions</title></rect><rect x="187.25" y="200.00" width="11.92" height="2.00" rx="2" fill="var(--track)"><title>2025-11-30: 0 contributions</title></rect><rect x="203.17" y="200.00" width="11.92" height="2.00" rx="2" fill="var(--track)"><title>2025-12-07: 0 contributions</title></rect><rect x="219.09" y="185.33" width="11.92" height="16.67" rx="2" fill="#39d3bb"><title>2025-12-14: 20 contributions</title></rect><rect x="235.02" y="181.17" width="11.92" height="20.83" rx="2" fill="#39d3bb"><title>2025-12-21: 25 contributions</title></rect><rect x="250.94" y="200.00" width="11.92" height="2.00" rx="2" fill="var(--track)"><title>2025-12-28: 0 contributions</title></rect><rect x="266.87" y="200.00" width="11.92" height="2.00" rx="2" fill="var(--track)"><title>2026-01-04: 0 contributions</title></rect><rect x="282.79" y="176.17" width="11.92" height="25.83" rx="2" fill="#39d3bb"><title>2026-01-11: 31 contributions</title></rect><rect x="298.72" y="200.00" width="11.92" height="2.00" rx="2" fill="var(--track)"><title>2026-01-18: 0 contributions</title></rect><rect x="314.64" y="200.00" width="11.92" height="2.00" rx="2" fill="var(--track)"><title>2026-01-25: 0 contributions</title></rect><rect x="330.57" y="200.00" width="11.92" height="2.00" rx="2" fill="var(--track)"><title>2026-02-01: 0 contributions</title></rect><rect x="346.49" y="200.00" width="11.92" height="2.00" rx="2" fill="var(--track)"><title>2026-02-08: 0 contributions</title></rect><rect x="362.42" y="191.17" width="11.92" height="10.83" rx="2" fill="#39d3bb"><title>2026-02-15: 13 contributions</title></rect><rect x="378.34" y="197.00" width="11.92" height="5.00" rx="2" fill="#39d3bb"><title>2026-02-22: 6 contributions</title></rect><rect x="394.26" y="200.00" width="11.92" height="2.00" rx="2" fill="var(--track)"><title>2026-03-01: 0 contributions</title></rect><rect x="410.19" y="200.00" width="11.92" height="2.00" rx="2" fill="var(--track)"><title>2026-03-08: 0 contributions</title></rect><rect x="426.11" y="200.00" width="11.92" height="2.00" rx="2" fill="var(--track)"><title>2026-03-15: 0 contributions</title></rect><rect x="442.04" y="200.00" width="11.92" height="2.00" rx="2" fill="var(--track)"><title>2026-03-22: 0 contributions</title></rect><rect x="457.96" y="200.00" width="11.92" height="2.00" rx="2" fill="#39d3bb"><title>2026-03-29: 2 contributions</title></rect><rect x="473.89" y="177.00" width="11.92" height="25.00" rx="2" fill="#39d3bb"><title>2026-04-05: 30 contributions</title></rect><rect x="489.81" y="200.00" width="11.92" height="2.00" rx="2" fill="var(--track)"><title>2026-04-12: 0 contributions</title></rect><rect x="505.74" y="200.00" width="11.92" height="2.00" rx="2" fill="var(--track)"><title>2026-04-19: 0 contributions</title></rect><rect x="521.66" y="200.00" width="11.92" height="2.00" rx="2" fill="var(--track)"><title>2026-04-26: 0 contributions</title></rect><rect x="537.58" y="200.00" width="11.92" height="2.00" rx="2" fill="var(--track)"><title>2026-05-03: 0 contributions</title></rect><rect x="553.51" y="200.00" width="11.92" height="2.00" rx="2" fill="var(--track)"><title>2026-05-10: 0 contributions</title></rect><rect x="569.43" y="200.00" width="11.92" height="2.00" rx="2" fill="var(--track)"><title>2026-05-17: 0 contributions</title></rect><rect x="585.36" y="200.00" width="11.92" height="2.00" rx="2" fill="var(--track)"><title>2026-05-24: 0 contributions</title></rect><rect x="601.28" y="200.00" width="11.92" height="2.00" rx="2" fill="#39d3bb"><title>2026-05-31: 2 contributions</title></rect><rect x="617.21" y="200.00" width="11.92" height="2.00" rx="2" fill="#39d3bb"><title>2026-06-07: 1 contributions</title></rect><rect x="633.13" y="200.00" width="11.92" height="2.00" rx="2" fill="var(--track)"><title>2026-06-14: 0 contributions</title></rect><rect x="649.06" y="200.00" width="11.92" height="2.00" rx="2" fill="var(--track)"><title>2026-06-21: 0 contributions</title></rect><rect x="664.98" y="200.00" width="11.92" height="2.00" rx="2" fill="var(--track)"><title>2026-06-28: 0 contributions</title></rect><rect x="680.91" y="200.00" width="11.92" height="2.00" rx="2" fill="var(--track)"><title>2026-07-05: 0 contributions</title></rect><rect x="696.83" y="200.00" width="11.92" height="2.00" rx="2" fill="var(--track)"><title>2026-07-12: 0 contributions</title></rect><rect x="712.75" y="200.00" width="11.92" height="2.00" rx="2" fill="var(--track)"><title>2026-07-19: 0 contributions</title></rect><rect x="728.68" y="199.50" width="11.92" height="2.50" rx="2" fill="#39d3bb"><title>2026-07-26: 3 contributions</title></rect><rect x="744.60" y="200.00" width="11.92" height="2.00" rx="2" fill="var(--track)"><title>2026-08-02: 0 contributions</title></rect><rect x="760.53" y="137.00" width="11.92" height="65.00" rx="2" fill="#39d3bb"><title>2026-08-09: 78 contributions</title></rect><rect x="776.45" y="197.83" width="11.92" height="4.17" rx="2" fill="#39d3bb"><title>2026-08-16: 5 contributions</title></rect><rect x="792.38" y="200.00" width="11.92" height="2.00" rx="2" fill="var(--track)"><title>2026-08-23: 0 contributions</title></rect><rect x="808.30" y="200.00" width="11.92" height="2.00" rx="2" fill="#39d3bb"><title>2026-08-30: 2 contributions</title></rect><rect x="824.23" y="200.00" width="11.92" height="2.00" rx="2" fill="var(--track)"><title>2026-09-06: 0 contributions</title></rect><rect x="840.15" y="198.67" width="11.92" height="3.33" rx="2" fill="#39d3bb"><title>2026-09-13: 4 contributions</title></rect><rect x="856.08" y="200.00" width="11.92" height="2.00" rx="2" fill="var(--track)"><title>2026-09-20: 0 contributions</title></rect><text x="28" y="226" fill="var(--sub)" font-size="11" font-weight="400">2025-09-21 → 2026-09-23 · Weekly contributions · Best streak within this period</text></svg>