<svg xmlns="http://www.w3.org/2000/svg" width="900" height="184" viewBox="0 0 900 184" role="img" aria-label="CODE / LANGUAGES">
<title>CODE / LANGUAGES</title><style>svg{--bg:#ffffff;--border:#d0d7de;--text:#1f2328;--sub:#656d76;--track:#f6f8fa;font-family:Arial,sans-serif}.reveal{animation:reveal 1.4s ease-out both;transform-box:fill-box;transform-origin:left}@keyframes reveal{from{transform:scaleX(.02);opacity:.2}to{transform:scaleX(1);opacity:1}}@media(prefers-reduced-motion:reduce){.reveal{animation:none}}</style>
<rect x=".5" y=".5" width="899" height="183" rx="16" fill="var(--bg)" stroke="var(--border)"/>
<text x="28" y="34" fill="var(--sub)" font-size="13" font-weight="700">CODE / LANGUAGES</text><rect class="reveal" x="28.00" y="56" width="561.91" height="12" fill="#58a6ff"/><circle cx="32" cy="97" r="4" fill="#58a6ff"/><text x="44" y="101" fill="var(--text)" font-size="13" font-weight="400">Python 66.6%</text><rect class="reveal" x="589.91" y="56" width="93.58" height="12" fill="#a78bfa"/><circle cx="250" cy="97" r="4" fill="#a78bfa"/><text x="262" y="101" fill="var(--text)" font-size="13" font-weight="400">JavaScript 11.1%</text><rect class="reveal" x="683.49" y="56" width="78.85" height="12" fill="#39d3bb"/><circle cx="468" cy="97" r="4" fill="#39d3bb"/><text x="480" y="101" fill="var(--text)" font-size="13" font-weight="400">TypeScript 9.3%</text><rect class="reveal" x="762.34" y="56" width="51.73" height="12" fill="#f2cc60"/><circle cx="686" cy="97" r="4" fill="#f2cc60"/><text x="698" y="101" fill="var(--text)" font-size="13" font-weight="400">CSS 6.1%</text><rect class="reveal" x="814.07" y="56" width="34.39" height="12" fill="#f78166"/><circle cx="32" cy="126" r="4" fill="#f78166"/><text x="44" y="130" fill="var(--text)" font-size="13" font-weight="400">HTML 4.1%</text><rect class="reveal" x="848.46" y="56" width="23.14" height="12" fill="#db61a2"/><circle cx="250" cy="126" r="4" fill="#db61a2"/><text x="262" y="130" fill="var(--text)" font-size="13" font-weight="400">Inno Setup 2.7%</text><rect class="reveal" x="871.60" y="56" width="0.40" height="12" fill="#8b949e"/><circle cx="468" cy="126" r="4" fill="#8b949e"/><text x="480" y="130" fill="var(--text)" font-size="13" font-weight="400">Other 0.0%</text><text x="28" y="164" fill="var(--sub)" font-size="11" font-weight="400">Share of code bytes · Public originals · Archived repositories and this profile excluded</text></svg>